# xmcd
#
# Track frame offsets: 
#        150
#        17190
#        31397
#        46362
#        63994
#        77310
#        91813
#        107231
#        121017
#        136939
#        153858
#        169622
#        183242
#        199526
#        213132
#
# Disc length: 3012 seconds
#
# Revision: 2
# Processed by: cddbd v1.5.2PL0 Copyright (c) Steve Scherf et al.
# Submitted via: ExactAudioCopy v0.99pb5
#
DISCID=b00bc20f
DTITLE=TRUCK STOP - DAMENWAHL
DYEAR=1999
DGENRE=Country
TTITLE0=Damenwahl (Jetzt Geht´s Los) (Western Dance Version)
TTITLE1=Schornsteinfeger
TTITLE2=Ich Bin Immer Da Für Dich
TTITLE3=Ebbe Und Flut
TTITLE4=Oh Mann, Oh Mann
TTITLE5=Der Junge Auf Der Brücke
TTITLE6=Lady Harley
TTITLE7=Nach Cowboyart
TTITLE8=Auf Die Piste Geh´n
TTITLE9=Der Kaffee Muss Schwarz Sein
TTITLE10=Wir Sind Nur Für Stiefel Gut
TTITLE11=Kleiner Grüner Frosch
TTITLE12=Keinen Spaß Ohne Dich
TTITLE13=Damenwahl (Jetzt Geht´s Los) (Bluegrass Version)
TTITLE14=Die Cowboys Der Nation
EXTD=
EXTT0=
EXTT1=
EXTT2=
EXTT3=
EXTT4=
EXTT5=
EXTT6=
EXTT7=
EXTT8=
EXTT9=
EXTT10=
EXTT11=
EXTT12=
EXTT13=
EXTT14=
PLAYORDER=
